<svg xmlns="http://www.w3.org/2000/svg" viewBox="0 0 352 352"><defs><style>.cls-1{opacity:0.1;}.cls-2{fill:#fff;}</style></defs><g id="Layer_2" data-name="Layer 2"><g id="Layer_1-2" data-name="Layer 1"><g id="Layer_2-2" data-name="Layer 2" class="cls-1"><g id="Layer_1-2-2" data-name="Layer 1-2"><path class="cls-2" d="M242.72,176,342.79,75.93a31.46,31.46,0,0,0,0-44.48L320.55,9.21a31.46,31.46,0,0,0-44.48,0L176,109.28,75.93,9.21a31.46,31.46,0,0,0-44.48,0L9.21,31.45a31.46,31.46,0,0,0,0,44.48L109.28,176,9.21,276.07a31.46,31.46,0,0,0,0,44.48l22.24,22.24a31.46,31.46,0,0,0,44.48,0L176,242.72,276.07,342.79a31.46,31.46,0,0,0,44.48,0l22.24-22.24a31.46,31.46,0,0,0,0-44.48Z"/></g></g></g></g></svg>